<?xml version="1.0" standalone="no"?>
<!DOCTYPE svg PUBLIC "-//W3C//DTD SVG 20010904//EN"
 "http://www.w3.org/TR/2001/REC-SVG-20010904/DTD/svg10.dtd">
<svg version="1.0" xmlns="http://www.w3.org/2000/svg"
 width="386.000000pt" height="103.000000pt" viewBox="0 0 386.000000 103.000000"
 preserveAspectRatio="xMidYMid meet">

<g transform="translate(0.000000,103.000000) scale(0.100000,-0.100000)"
fill="#000000" stroke="none">
<path d="M499 866 c-73 -21 -146 -65 -218 -134 l-66 -62 74 54 c40 30 110 69
155 87 75 31 89 33 196 33 89 0 123 -3 150 -17 19 -9 26 -15 15 -13 -50 11
-144 15 -180 8 l-39 -7 49 -32 c28 -17 64 -37 80 -43 29 -12 30 -12 8 -21 -40
-15 -25 -29 30 -29 134 -1 262 -37 309 -87 21 -23 21 -25 3 -20 -123 36 -415
42 -555 13 -99 -21 -195 -59 -195 -78 0 -7 -20 -20 -45 -28 -55 -19 -72 -29
-65 -39 6 -11 40 -5 140 24 127 37 131 37 171 15 21 -10 58 -22 83 -25 25 -3
56 -8 69 -11 12 -2 22 0 22 5 0 4 -27 11 -59 15 -72 8 -112 35 -95 63 18 30
85 29 152 -3 80 -39 81 -39 45 -5 -18 17 -29 32 -25 34 4 3 39 5 78 6 67 2
124 -12 124 -31 0 -4 7 -8 15 -8 8 0 15 7 15 15 0 8 5 15 10 15 6 0 10 -7 10
-15 0 -18 17 -20 22 -3 7 19 124 -14 119 -33 -2 -8 -6 -25 -8 -39 -4 -23 -1
-21 29 14 25 28 40 38 52 33 14 -6 17 -2 14 16 -2 15 -28 39 -82 74 -99 65
-119 84 -167 154 -43 63 -90 92 -178 109 -72 13 -205 11 -262 -4z"/>
<path d="M1800 617 c0 -203 0 -204 25 -227 21 -19 32 -22 79 -18 31 3 59 7 62
11 4 3 3 22 0 42 -5 26 -11 35 -22 31 -8 -3 -21 -3 -29 0 -13 5 -15 35 -15
185 l0 179 -50 0 -50 0 0 -203z"/>
<path d="M2000 775 l0 -45 50 0 50 0 0 45 0 45 -50 0 -50 0 0 -45z"/>
<path d="M1520 795 c-5 -6 -27 -60 -49 -121 -22 -60 -55 -153 -75 -206 l-36
-98 53 0 53 0 15 48 15 47 69 0 69 0 15 -47 15 -48 52 0 53 0 -18 53 c-53 149
-133 363 -140 370 -12 13 -81 14 -91 2z m69 -177 c12 -34 21 -66 21 -70 0 -4
-20 -8 -45 -8 -25 0 -45 4 -45 8 0 11 41 132 45 132 2 0 13 -28 24 -62z"/>
<path d="M2282 802 c-20 -3 -23 -8 -20 -45 l3 -42 55 -1 c30 0 61 -2 68 -2 9
-2 12 -43 12 -172 l0 -170 50 0 50 0 0 170 c0 129 3 170 13 172 6 0 35 2 62 2
l50 1 3 43 c3 35 0 42 -15 43 -75 3 -312 3 -331 1z"/>
<path d="M2686 690 c-69 -21 -110 -88 -104 -170 7 -99 65 -150 171 -150 93 0
157 60 164 152 9 122 -106 205 -231 168z m113 -106 c31 -40 24 -89 -18 -121
-63 -49 -138 70 -81 127 29 29 74 26 99 -6z"/>
<path d="M3495 688 c-11 -6 -30 -20 -42 -30 l-21 -20 2 26 c3 25 1 26 -43 26
l-46 0 0 -158 1 -157 47 -3 47 -3 0 100 c0 111 5 121 78 136 30 6 32 9 32 51
0 47 -13 55 -55 32z"/>
<path d="M2000 530 l0 -160 50 0 50 0 0 160 0 160 -50 0 -50 0 0 -160z"/>
<path d="M2960 575 c0 -169 20 -205 113 -205 31 0 55 8 81 25 26 18 36 21 36
10 0 -19 32 -35 69 -35 30 0 31 2 31 44 0 25 -4 48 -10 51 -6 4 -10 53 -10
116 l0 109 -50 0 -50 0 0 -100 c0 -87 -3 -103 -20 -120 -24 -24 -53 -26 -74
-4 -13 12 -16 38 -16 120 l0 104 -50 0 -50 0 0 -115z"/>
<path d="M1188 465 l4 -35 -213 -1 c-311 -1 -472 -12 -505 -34 -11 -7 -37 -17
-58 -20 -34 -7 -51 -25 -22 -25 23 0 35 -71 17 -99 -8 -12 -12 -12 -25 -2 -14
12 -16 10 -16 -7 0 -12 5 -33 12 -47 10 -23 16 -26 42 -21 115 24 285 35 516
36 l166 0 9 32 c7 21 17 34 30 36 57 8 64 13 74 47 7 25 5 54 -5 102 -8 38
-14 69 -14 70 0 2 -4 3 -8 3 -4 0 -6 -16 -4 -35z m-612 -108 c33 -8 49 -16 47
-24 -3 -7 3 -13 14 -13 15 0 16 -2 3 -10 -8 -5 -26 -10 -39 -10 -19 0 -22 -3
-13 -12 13 -13 107 -16 258 -7 112 6 169 -3 95 -16 -73 -12 -439 -9 -455 4 -7
6 -16 24 -19 39 -3 15 -9 35 -12 45 -6 14 -1 17 31 17 22 -1 62 -6 90 -13z"/>
<path d="M2390 270 c0 -5 5 -10 11 -10 5 0 7 5 4 10 -3 6 -8 10 -11 10 -2 0
-4 -4 -4 -10z"/>
<path d="M1377 263 c19 -4 23 -12 26 -56 l3 -52 2 52 c2 45 5 52 25 56 12 2 0
4 -28 4 -27 0 -40 -2 -28 -4z"/>
<path d="M1998 265 c-3 -6 -5 -30 -4 -55 2 -36 6 -45 22 -47 10 -2 13 0 7 3
-7 3 -13 19 -13 35 0 16 5 29 13 29 8 0 9 3 1 8 -6 4 -13 14 -16 22 -2 7 -7
10 -10 5z"/>
<path d="M2177 263 c19 -4 23 -12 26 -56 l3 -52 2 52 c2 45 5 52 25 56 12 2 0
4 -28 4 -27 0 -40 -2 -28 -4z"/>
<path d="M2498 253 c-8 -38 6 -88 27 -91 15 -2 16 -1 7 6 -8 5 -13 22 -12 38
3 46 1 64 -9 64 -5 0 -10 -8 -13 -17z"/>
<path d="M2920 215 l0 -55 43 2 42 1 -37 4 c-29 3 -38 9 -38 23 0 14 9 20 33
23 l32 4 -32 1 c-25 2 -33 7 -33 21 0 15 8 21 33 24 31 4 31 4 -5 5 l-38 2 0
-55z"/>
<path d="M3315 223 c2 -63 2 -63 23 -62 10 0 12 3 5 6 -7 2 -13 17 -13 33 0
16 6 31 13 33 10 4 10 6 0 6 -7 1 -13 8 -13 16 0 8 -4 15 -8 15 -5 0 -8 -21
-7 -47z"/>
<path d="M1451 195 c2 -33 3 -35 6 -10 2 17 11 35 20 42 13 10 13 12 -6 10
-18 -1 -21 -7 -20 -42z"/>
<path d="M1515 233 c30 -7 43 -23 19 -23 -11 0 -25 -5 -31 -11 -20 -20 -3 -39
33 -39 36 0 41 10 28 58 -5 17 -13 22 -38 21 -21 -1 -24 -3 -11 -6z m33 -45
c-7 -19 -38 -22 -38 -4 0 10 9 16 21 16 12 0 19 -5 17 -12z"/>
<path d="M1584 213 c7 -55 9 -58 15 -23 4 22 12 36 24 38 14 3 17 -4 17 -33 0
-20 4 -34 8 -31 5 3 8 15 6 28 -1 13 -3 29 -3 36 -1 7 -15 12 -35 12 -32 0
-35 -2 -32 -27z"/>
<path d="M1677 233 c-13 -12 -7 -23 18 -35 14 -6 25 -16 25 -21 0 -5 -11 -7
-25 -5 -14 3 -25 1 -25 -3 0 -5 13 -9 29 -9 39 0 49 27 16 42 -31 14 -32 25
-2 31 20 4 20 4 -4 6 -14 0 -29 -2 -32 -6z"/>
<path d="M1751 181 c1 -32 4 -48 7 -36 5 13 16 20 31 20 58 0 51 69 -8 71
l-31 1 1 -56z m59 34 c10 -12 10 -18 0 -30 -17 -21 -37 -19 -45 5 -12 37 20
55 45 25z"/>
<path d="M1852 228 c-25 -25 -7 -68 29 -68 25 0 42 26 35 55 -7 27 -42 35 -64
13z m55 -14 c3 -8 -2 -23 -11 -32 -14 -15 -18 -15 -31 -1 -9 9 -13 23 -9 32 8
21 43 22 51 1z"/>
<path d="M1941 195 c2 -33 3 -35 6 -10 2 17 11 35 20 42 13 10 13 12 -6 10
-18 -1 -21 -7 -20 -42z"/>
<path d="M2044 226 c-11 -30 1 -61 25 -64 13 -2 28 1 34 7 7 7 2 10 -18 8 -15
-1 -30 3 -32 9 -2 6 10 11 28 12 39 1 45 7 29 27 -16 19 -59 20 -66 1z m56 -6
c0 -5 -12 -10 -26 -10 -14 0 -23 4 -19 10 3 6 15 10 26 10 10 0 19 -4 19 -10z"/>
<path d="M2244 212 c3 -40 13 -51 46 -49 28 2 30 4 26 37 -6 49 -8 50 -15 10
-9 -50 -41 -55 -41 -6 0 20 -4 36 -9 36 -5 0 -8 -12 -7 -28z"/>
<path d="M2341 195 c2 -33 3 -35 6 -10 2 17 11 35 20 42 13 10 13 12 -6 10
-18 -1 -21 -7 -20 -42z"/>
<path d="M2390 200 c0 -22 4 -40 8 -40 5 0 9 18 8 40 0 22 -4 40 -8 40 -5 0
-8 -18 -8 -40z"/>
<path d="M2427 233 c-13 -12 -7 -23 18 -35 32 -14 32 -32 0 -26 -13 3 -22 1
-19 -3 3 -5 16 -9 30 -9 30 0 34 36 4 45 -27 8 -25 23 3 28 20 4 20 4 -4 6
-14 0 -29 -2 -32 -6z"/>
<path d="M2550 198 c0 -23 3 -38 7 -34 10 10 11 76 1 76 -4 0 -8 -19 -8 -42z"/>
<path d="M2592 228 c-27 -27 -6 -68 35 -68 13 0 23 4 23 9 0 5 -9 7 -19 4 -27
-7 -47 30 -26 47 8 7 22 10 30 6 8 -3 15 -1 15 4 0 14 -44 12 -58 -2z"/>
<path d="M2672 223 c-15 -28 3 -63 32 -63 32 0 51 32 36 60 -13 25 -56 26 -68
3z m53 -23 c0 -16 -6 -26 -18 -28 -19 -4 -32 20 -23 44 9 25 41 13 41 -16z"/>
<path d="M2795 225 c4 -11 12 -33 19 -48 9 -22 8 -30 -4 -37 -13 -9 -13 -10 0
-10 9 0 24 22 37 55 11 30 18 55 13 55 -4 0 -11 -11 -14 -25 -6 -23 -26 -36
-26 -17 0 5 -7 17 -16 28 -15 19 -16 19 -9 -1z"/>
<path d="M3008 193 c-2 -32 -7 -47 -15 -46 -7 2 -13 -2 -13 -7 0 -13 27 -13
35 1 11 17 15 99 5 99 -5 0 -10 -21 -12 -47z"/>
<path d="M3052 228 c-27 -27 -6 -68 34 -68 13 0 25 4 29 9 3 6 -7 9 -21 8 -15
-1 -29 3 -31 10 -3 8 6 10 26 7 31 -5 36 1 25 30 -7 19 -45 21 -62 4z m53 -8
c4 -6 -5 -10 -19 -10 -14 0 -26 5 -26 10 0 6 9 10 19 10 11 0 23 -4 26 -10z"/>
<path d="M3142 228 c-27 -27 -6 -68 34 -68 13 0 25 4 29 9 3 6 -7 9 -22 8 -24
-2 -28 2 -28 23 0 19 5 25 23 24 12 0 22 3 22 8 0 12 -44 10 -58 -4z"/>
<path d="M3224 205 c1 -39 2 -40 36 -41 l35 -2 -4 42 c-4 31 -6 35 -9 14 -4
-31 -28 -56 -42 -42 -4 5 -11 23 -13 39 -3 22 -4 19 -3 -10z"/>
<path d="M3363 200 c0 -22 4 -40 9 -40 4 0 8 18 8 40 0 22 -4 40 -9 40 -5 0
-8 -18 -8 -40z"/>
<path d="M3405 204 c8 -20 15 -38 15 -40 0 -2 4 -4 8 -4 5 0 16 18 25 40 8 22
12 40 7 40 -4 0 -11 -11 -14 -25 -4 -14 -11 -25 -16 -25 -5 0 -12 11 -16 25
-3 14 -10 25 -15 25 -5 0 -2 -16 6 -36z"/>
<path d="M3480 221 c-16 -32 4 -63 38 -59 24 3 27 7 27 38 0 31 -3 35 -27 38
-19 2 -30 -3 -38 -17z m55 -21 c0 -16 -6 -26 -18 -28 -19 -4 -32 20 -23 44 9
25 41 13 41 -16z"/>
</g>
</svg>
